<?xml version="1.0" encoding="UTF-8" standalone="no"?><!DOCTYPE svg PUBLIC "-//W3C//DTD SVG 1.1//EN" "http://www.w3.org/Graphics/SVG/1.1/DTD/svg11.dtd"><svg width="100%" height="100%" viewBox="0 0 1112 834" version="1.1" xmlns="http://www.w3.org/2000/svg" xmlns:xlink="http://www.w3.org/1999/xlink" xml:space="preserve" xmlns:serif="http://www.serif.com/" style="fill-rule:evenodd;clip-rule:evenodd;stroke-linejoin:round;stroke-miterlimit:1.41421;"><rect id="Artboard1" x="0" y="0" width="1112" height="834" style="fill:none;"/><g id="Artboard11" serif:id="Artboard1"><g><g><g><g><g><g><path d="M525.039,391.336l-0.058,7.599c-16.625,4.05 -37.938,5.012 -58.637,3.288c19.25,-0.316 39.081,-4.658 52.493,-13.494l6.173,-4.413l0.029,7.02Z" style="fill:#801830;"/><path d="M524.802,334.207c-0.158,-18.606 -0.237,-38.316 -0.237,-59.13c0,-12.299 -0.157,-22.154 -0.473,-29.565c-0.263,-6.171 -1.839,-15.272 -3.578,-19.442c5.129,1.509 12.671,2.267 17.294,4.15c9.268,3.774 25.609,9.669 30.817,22.634c2.8,6.968 1.656,17.296 2.328,19.918l0,108.739c0,2.208 0.237,4.021 0.71,5.44c0.473,1.419 1.657,2.76 3.55,4.021c1.262,0.946 3.629,1.813 7.1,2.602c3.471,0.788 7.179,1.34 11.124,1.655c3.944,0.316 7.81,0.552 11.597,0.71c3.786,0.158 6.784,0.236 8.993,0.236c5.996,0 11.124,-0.394 15.384,-1.182c4.26,-0.789 8.914,-3.233 13.963,-7.332c10.414,-8.515 17.435,-19.474 21.064,-32.877c3.629,-13.402 5.443,-26.569 5.443,-39.499c0,-10.722 -1.42,-21.365 -4.26,-31.93c-2.84,-10.564 -7.258,-20.104 -13.253,-28.619c-5.996,-8.515 -13.727,-15.374 -23.194,-20.577c-9.467,-5.204 -20.985,-7.805 -34.554,-7.805c-1.578,0 -3.705,0.131 -6.39,0.236c-6.598,0.258 -10.29,1.039 -10.29,1.039c0,0 -59.784,-14.718 -73.038,-14.718l-16.729,-5.749l-0.528,-0.203l121.175,0c13.569,0 27.375,1.025 41.418,3.075c14.042,2.05 26.586,7.647 37.63,16.793c9.467,7.884 16.41,17.108 20.828,27.673c4.417,10.564 6.863,21.602 7.336,33.113c0.474,11.51 -0.867,23.1 -4.023,34.768c-3.156,11.668 -7.416,22.548 -12.78,32.64c-5.365,10.091 -11.597,18.922 -18.697,26.49c-7.1,7.569 -14.595,13.088 -22.484,16.557c6.627,1.892 13.49,7.253 20.59,16.083c7.1,8.83 14.358,19.395 21.774,31.694c7.416,12.299 15.226,25.307 23.431,39.026c8.204,13.718 16.882,26.411 26.033,38.079c9.152,11.669 18.855,21.287 29.111,28.856c10.256,7.569 21.221,11.353 32.897,11.353c-14.2,0 -26.191,-0.079 -35.974,-0.237c-9.782,-0.157 -18.066,-0.473 -24.85,-0.946c-6.785,-0.473 -12.386,-1.34 -16.804,-2.601c-4.418,-1.262 -8.52,-2.996 -12.307,-5.204c-6.942,-4.099 -13.648,-10.012 -20.117,-17.739c-6.469,-7.726 -12.701,-16.004 -18.697,-24.834c-5.996,-8.831 -11.676,-17.74 -17.04,-26.727c-5.365,-8.988 -10.256,-17.109 -14.674,-24.362c-1.578,-2.523 -3.471,-5.755 -5.68,-9.697c-2.209,-3.942 -4.576,-7.884 -7.1,-11.826c-2.525,-3.942 -4.97,-7.648 -7.337,-11.117c-2.367,-3.469 -4.497,-6.149 -6.39,-8.041c-1.893,-1.893 -4.97,-3.312 -9.23,-4.258c-4.26,-0.946 -8.915,-1.655 -13.964,-2.129c-5.049,-0.473 -9.782,-0.788 -14.2,-0.946c-4.418,-0.157 -7.731,-0.236 -9.94,-0.236c-2.525,0 -4.339,0.315 -5.444,0.946c-1.104,0.631 -1.656,2.207 -1.656,4.73c0,18.607 -0.079,33.665 -0.237,45.176c-0.158,11.51 -0.237,21.05 -0.237,28.619c0,7.568 -0.079,14.033 -0.236,19.394c-0.158,5.362 -0.237,11.196 -0.237,17.503c0,7.253 2.367,13.561 7.1,18.922c4.712,5.337 13.96,10.518 27.927,15.61l-117.389,0c0,0 0,0 0,0l0,0c8.281,-2.555 14.622,-5.22 19.171,-8.042c4.575,-2.838 8.046,-5.755 10.413,-8.751c2.367,-2.996 3.945,-5.992 4.734,-8.988c0.789,-2.996 1.183,-5.755 1.183,-8.278c0.947,-28.067 1.578,-53.138 1.893,-75.214l0.416,-54.846l0.058,-7.595l-0.029,-7.015l-0.208,-50.223Z" style="fill:#bdc8d9;"/><path d="M573.635,316.162c5.594,-48.819 -22.477,-72.384 -37.935,-81.135c-22.148,-12.537 -47.917,-15.407 -71.486,-8.888c-3.321,0.919 -6.074,2.209 -8.283,3.787c-2.209,1.578 -3.314,3.787 -3.314,6.627c0,48.596 -0.236,96.798 -0.71,144.606c-0.473,47.807 0.079,97.272 1.657,148.393c0,3.471 1.105,7.021 3.314,10.65c2.208,3.629 4.891,7.021 8.046,10.177c3.156,3.155 6.706,5.838 10.651,8.047c3.889,2.177 7.701,3.742 11.596,4.733l0,0l-119.755,0c3.155,-0.947 6.784,-2.367 10.887,-4.26c4.102,-1.893 7.889,-4.26 11.36,-7.1c3.471,-2.84 6.39,-6.154 8.757,-9.94c2.366,-3.787 3.55,-8.047 3.55,-12.781c0,-3.471 0,-7.258 0,-11.36c0,-4.102 0.079,-9.94 0.236,-17.514c0.158,-7.573 0.316,-17.513 0.474,-29.82c0.158,-12.307 0.315,-28.401 0.473,-48.281c0.158,-19.88 0.237,-44.258 0.237,-73.131c0,-28.874 0,-63.507 0,-103.899c-0.316,-3.787 -0.947,-7.416 -1.894,-10.887c-0.946,-3.471 -2.84,-6.785 -5.68,-9.94c-2.84,-3.156 -7.179,-6.154 -13.017,-8.994c-5.837,-2.84 -13.648,-5.68 -23.43,-8.52l148.344,0.234c13.254,0 25.876,1.42 37.868,4.26c11.991,2.84 22.641,7.573 31.95,14.2l2.718,2.19c8.111,6.244 14.58,14.133 19.529,23.607c5.523,10.571 8.284,23.431 8.284,38.577c0,17.041 -2.919,32.819 -8.757,47.335c-5.838,14.516 -14.595,26.98 -26.271,37.394l-2.081,1.745l0,-48.814c0.575,-1.727 1.103,-3.469 1.548,-5.23c0.503,-1.996 0.899,-4.017 1.134,-6.068Z" style="fill:#801830;"/></g><path d="M475.362,563.159l-0.001,0l0,0l0.001,0Z" style="fill:#ff9000;"/></g></g></g></g></g><g><path d="M328.491,574.592l514.271,0.607" style="fill:#801830;"/><path d="M842.765,573.059l-0.005,4.28l-514.272,-0.606l0.005,-4.281c171.424,0.202 342.848,0.404 514.272,0.607Z" style="fill:#801830;fill-rule:nonzero;"/><path d="M328.491,648.288l514.271,0.606" style="fill:#801830;"/><path d="M842.765,646.754l-0.005,4.28l-514.272,-0.606l0.005,-4.281c171.424,0.202 342.848,0.405 514.272,0.607Z" style="fill:#801830;fill-rule:nonzero;"/></g><g><path d="M360.496,592.588c-0.046,-0.55 -0.138,-1.078 -0.275,-1.582c-0.138,-0.505 -0.413,-0.986 -0.826,-1.445c-0.413,-0.458 -1.043,-0.894 -1.891,-1.307c-0.849,-0.412 -1.984,-0.825 -3.405,-1.238l21.048,0c1.926,0 3.76,0.207 5.503,0.619c1.742,0.413 3.29,1.101 4.642,2.064c1.353,0.963 2.431,2.212 3.233,3.749c0.803,1.536 1.204,3.404 1.204,5.606c0,2.476 -0.424,4.769 -1.272,6.878c-0.849,2.109 -2.121,3.921 -3.818,5.434c-1.697,1.513 -3.795,2.637 -6.294,3.37c-2.499,0.734 -5.399,0.963 -8.701,0.688c2.797,-0.046 5.17,-0.711 7.119,-1.995c1.949,-1.284 3.474,-2.889 4.574,-4.814c1.101,-1.926 1.743,-4.013 1.926,-6.26c0.184,-2.247 -0.08,-4.322 -0.791,-6.225c-0.71,-1.903 -1.891,-3.473 -3.542,-4.712c-1.651,-1.238 -3.783,-1.857 -6.397,-1.857c-0.504,0 -1.043,0.012 -1.616,0.035c-0.574,0.023 -1.101,0.103 -1.582,0.24c-0.482,0.138 -0.883,0.321 -1.204,0.551c-0.321,0.229 -0.482,0.55 -0.482,0.963c0,7.062 -0.034,14.066 -0.103,21.013c-0.069,6.947 0.012,14.135 0.241,21.564c0,0.505 0.16,1.02 0.481,1.548c0.321,0.527 0.711,1.02 1.17,1.479c0.458,0.458 0.974,0.848 1.547,1.169c0.574,0.321 1.135,0.55 1.686,0.688l-17.403,0c0.459,-0.138 0.986,-0.344 1.582,-0.619c0.596,-0.275 1.147,-0.619 1.651,-1.032c0.504,-0.413 0.929,-0.894 1.273,-1.444c0.343,-0.551 0.515,-1.17 0.515,-1.858c0,-0.504 0,-1.054 0,-1.65c0,-0.597 0.012,-1.445 0.035,-2.545c0.023,-1.101 0.046,-2.545 0.069,-4.334c0.022,-1.788 0.045,-4.127 0.068,-7.016c0.023,-2.889 0.035,-6.431 0.035,-10.627c0,-4.196 0,-9.229 0,-15.098Z" style="fill:#bdc8d9;fill-opacity:0.917647;fill-rule:nonzero;"/><path d="M402.179,596.784c0,-1.605 -0.011,-2.924 -0.034,-3.955c-0.023,-1.032 -0.195,-1.903 -0.516,-2.614c-0.321,-0.711 -0.837,-1.296 -1.548,-1.754c-0.711,-0.459 -1.754,-0.917 -3.13,-1.376l16.577,0c-0.733,0.229 -1.387,0.47 -1.96,0.722c-0.573,0.253 -1.066,0.562 -1.479,0.929c-0.413,0.367 -0.722,0.825 -0.928,1.376c-0.207,0.55 -0.31,1.238 -0.31,2.063c0,3.99 -0.023,7.681 -0.069,11.074c-0.046,3.394 -0.08,6.718 -0.103,9.974c-0.023,3.256 0,6.546 0.069,9.871c0.069,3.324 0.195,6.867 0.378,10.627c0.046,0.871 0.23,1.582 0.55,2.132c0.321,0.55 0.734,1.009 1.239,1.376c0.504,0.367 1.077,0.676 1.719,0.928c0.642,0.253 1.284,0.47 1.926,0.654l-17.609,0c2.935,-0.184 4.563,-1.72 4.884,-4.609c0.275,-2.384 0.401,-4.78 0.378,-7.188c-0.023,-2.407 -0.034,-4.826 -0.034,-7.256l0,-22.974Z" style="fill:#bdc8d9;fill-opacity:0.917647;fill-rule:nonzero;"/><path d="M436.434,622.853c0,0.55 0.011,1.376 0.034,2.476c0.023,1.101 0.092,2.236 0.206,3.405c0.115,1.169 0.287,2.258 0.516,3.267c0.229,1.009 0.528,1.72 0.894,2.132c0.367,0.367 0.849,0.677 1.445,0.929c0.596,0.252 1.215,0.447 1.857,0.585c0.642,0.137 1.284,0.229 1.926,0.275c0.642,0.046 1.215,0.069 1.72,0.069c1.008,0 2.143,0 3.404,0c1.261,0 2.488,-0.195 3.68,-0.585c1.193,-0.39 2.293,-1.066 3.302,-2.029c1.009,-0.963 1.788,-2.385 2.339,-4.265c0,0.642 -0.046,1.399 -0.138,2.27c-0.092,0.871 -0.206,1.754 -0.344,2.648c-0.137,0.895 -0.309,1.766 -0.516,2.614c-0.206,0.848 -0.401,1.571 -0.584,2.167l-32.329,0c0,0.092 0.264,0 0.791,-0.275c0.527,-0.275 1.112,-0.654 1.754,-1.135c0.642,-0.482 1.238,-1.032 1.788,-1.651c0.551,-0.619 0.872,-1.25 0.963,-1.892c0.184,-1.467 0.287,-2.969 0.31,-4.505c0.023,-1.536 0.034,-3.038 0.034,-4.505l0,-29.234c0,-0.917 -0.011,-1.628 -0.034,-2.132c-0.023,-0.504 -0.057,-0.986 -0.103,-1.444c-0.046,-0.597 -0.138,-1.124 -0.275,-1.583c-0.138,-0.458 -0.413,-0.871 -0.826,-1.238c-0.412,-0.366 -1.009,-0.722 -1.788,-1.066c-0.78,-0.344 -1.857,-0.699 -3.233,-1.066l19.535,0.138c-1.376,0.321 -2.454,0.687 -3.233,1.1c-0.78,0.413 -1.376,0.871 -1.789,1.376c-0.412,0.504 -0.676,1.02 -0.791,1.548c-0.114,0.527 -0.172,1.043 -0.172,1.547c-0.091,2.981 -0.16,5.732 -0.206,8.254c-0.046,2.522 -0.08,4.964 -0.103,7.326c-0.023,2.361 -0.034,4.712 -0.034,7.05c0,2.339 0,4.815 0,7.429Z" style="fill:#bdc8d9;fill-opacity:0.917647;fill-rule:nonzero;"/><path d="M471.307,620.927l-5.503,14.582c-0.137,0.367 -0.103,0.711 0.104,1.032c0.206,0.321 0.481,0.63 0.825,0.929c0.344,0.298 0.722,0.561 1.135,0.791c0.413,0.229 0.757,0.412 1.032,0.55l-13.138,0c0.825,-0.092 1.628,-0.39 2.407,-0.894c0.78,-0.505 1.491,-1.101 2.133,-1.789c0.642,-0.688 1.203,-1.433 1.685,-2.235c0.481,-0.803 0.86,-1.548 1.135,-2.236l17.265,-46.635l16.921,45.191c0.275,0.733 0.63,1.547 1.066,2.442c0.435,0.894 0.963,1.765 1.582,2.613c0.619,0.849 1.284,1.605 1.995,2.27c0.71,0.665 1.478,1.089 2.304,1.273l-15.821,0c0.367,-0.092 0.78,-0.252 1.239,-0.482c0.458,-0.229 0.848,-0.504 1.169,-0.825c0.321,-0.321 0.539,-0.688 0.653,-1.101c0.115,-0.412 0.035,-0.871 -0.24,-1.375l-5.228,-14.101l-14.72,0Zm0.963,-3.095l13.138,0l-6.535,-17.472l-6.603,17.472Z" style="fill:#bdc8d9;fill-opacity:0.917647;fill-rule:nonzero;"/><path d="M513.128,596.921c0,-1.788 -0.023,-3.221 -0.069,-4.299c-0.046,-1.077 -0.24,-1.949 -0.584,-2.614c-0.344,-0.665 -0.883,-1.215 -1.617,-1.65c-0.734,-0.436 -1.765,-0.883 -3.095,-1.342l17.609,0c1.971,0 3.978,0.149 6.018,0.447c2.041,0.298 3.864,1.112 5.469,2.442c1.375,1.147 2.384,2.488 3.026,4.024c0.642,1.536 0.997,3.141 1.066,4.815c0.069,1.674 -0.126,3.359 -0.584,5.056c-0.459,1.696 -1.078,3.278 -1.858,4.746c-0.779,1.467 -1.685,2.751 -2.717,3.852c-1.031,1.1 -2.12,1.903 -3.267,2.407c0.963,0.275 1.961,1.055 2.992,2.339c1.032,1.284 2.087,2.82 3.164,4.608c1.078,1.789 2.213,3.68 3.405,5.675c1.192,1.995 2.454,3.84 3.783,5.537c1.33,1.697 2.74,3.095 4.231,4.196c1.49,1.101 3.083,1.651 4.78,1.651c-2.063,0 -3.806,-0.012 -5.228,-0.035c-1.421,-0.022 -2.625,-0.068 -3.611,-0.137c-0.986,-0.069 -1.8,-0.195 -2.442,-0.378c-0.642,-0.184 -1.238,-0.436 -1.788,-0.757c-1.009,-0.596 -1.983,-1.456 -2.923,-2.579c-0.94,-1.124 -1.846,-2.328 -2.717,-3.612c-0.872,-1.284 -1.697,-2.579 -2.476,-3.886c-0.78,-1.307 -1.491,-2.488 -2.133,-3.542c-0.229,-0.367 -0.504,-0.837 -0.825,-1.41c-0.321,-0.574 -0.665,-1.147 -1.032,-1.72c-0.367,-0.573 -0.722,-1.112 -1.066,-1.616c-0.344,-0.505 -0.654,-0.895 -0.929,-1.17c-0.275,-0.275 -0.722,-0.481 -1.341,-0.619c-0.619,-0.137 -1.295,-0.241 -2.029,-0.309c-0.734,-0.069 -1.422,-0.115 -2.064,-0.138c-0.642,-0.023 -1.123,-0.034 -1.444,-0.034c-0.367,0 -0.631,0.046 -0.791,0.137c-0.161,0.092 -0.241,0.321 -0.241,0.688c0,2.706 -0.011,4.895 -0.034,6.569c-0.023,1.674 -0.035,3.061 -0.035,4.161c0,1.101 -0.011,2.041 -0.034,2.821c-0.023,0.779 -0.034,1.627 -0.034,2.545c0,1.054 0.343,1.971 1.031,2.751c0.688,0.78 2.041,1.536 4.059,2.27l-17.059,0c1.192,-0.367 2.121,-0.757 2.786,-1.17c0.665,-0.412 1.169,-0.836 1.513,-1.272c0.344,-0.436 0.573,-0.871 0.688,-1.307c0.115,-0.436 0.172,-0.837 0.172,-1.204c0.137,-4.081 0.229,-7.726 0.275,-10.936c0.046,-3.21 0.069,-6.237 0.069,-9.08c0,-2.843 -0.012,-5.617 -0.035,-8.323c-0.023,-2.705 -0.034,-5.571 -0.034,-8.598Zm6.741,15.477c0,0.321 0.034,0.584 0.103,0.791c0.069,0.206 0.241,0.401 0.516,0.584c0.183,0.138 0.527,0.264 1.032,0.379c0.504,0.114 1.043,0.195 1.616,0.24c0.573,0.046 1.135,0.081 1.685,0.104c0.551,0.023 0.986,0.034 1.307,0.034c0.872,0 1.617,-0.057 2.236,-0.172c0.619,-0.115 1.295,-0.47 2.029,-1.066c1.513,-1.238 2.533,-2.832 3.061,-4.781c0.527,-1.949 0.791,-3.863 0.791,-5.743c0,-1.559 -0.207,-3.107 -0.619,-4.643c-0.413,-1.536 -1.055,-2.923 -1.926,-4.162c-0.871,-1.238 -1.995,-2.235 -3.371,-2.992c-1.375,-0.756 -3.049,-1.135 -5.021,-1.135c-0.229,0 -0.539,0.012 -0.928,0.035c-0.39,0.023 -0.769,0.08 -1.135,0.172c-0.367,0.091 -0.688,0.229 -0.963,0.412c-0.276,0.184 -0.413,0.459 -0.413,0.826l0,21.117Z" style="fill:#bdc8d9;fill-opacity:0.917647;fill-rule:nonzero;"/><path d="M589.547,596.921c0,-1.788 -0.023,-3.221 -0.068,-4.299c-0.046,-1.077 -0.241,-1.949 -0.585,-2.614c-0.344,-0.665 -0.883,-1.215 -1.617,-1.65c-0.733,-0.436 -1.765,-0.883 -3.095,-1.342l17.609,0c1.972,0 3.978,0.149 6.019,0.447c2.04,0.298 3.863,1.112 5.468,2.442c1.376,1.147 2.384,2.488 3.026,4.024c0.642,1.536 0.998,3.141 1.067,4.815c0.068,1.674 -0.127,3.359 -0.585,5.056c-0.459,1.696 -1.078,3.278 -1.857,4.746c-0.78,1.467 -1.685,2.751 -2.717,3.852c-1.032,1.1 -2.121,1.903 -3.267,2.407c0.962,0.275 1.96,1.055 2.992,2.339c1.031,1.284 2.086,2.82 3.164,4.608c1.077,1.789 2.212,3.68 3.405,5.675c1.192,1.995 2.453,3.84 3.783,5.537c1.329,1.697 2.74,3.095 4.23,4.196c1.49,1.101 3.084,1.651 4.78,1.651c-2.063,0 -3.806,-0.012 -5.227,-0.035c-1.422,-0.022 -2.625,-0.068 -3.611,-0.137c-0.986,-0.069 -1.8,-0.195 -2.442,-0.378c-0.642,-0.184 -1.238,-0.436 -1.789,-0.757c-1.008,-0.596 -1.983,-1.456 -2.923,-2.579c-0.94,-1.124 -1.846,-2.328 -2.717,-3.612c-0.871,-1.284 -1.697,-2.579 -2.476,-3.886c-0.78,-1.307 -1.49,-2.488 -2.132,-3.542c-0.23,-0.367 -0.505,-0.837 -0.826,-1.41c-0.321,-0.574 -0.665,-1.147 -1.032,-1.72c-0.366,-0.573 -0.722,-1.112 -1.066,-1.616c-0.344,-0.505 -0.653,-0.895 -0.928,-1.17c-0.276,-0.275 -0.723,-0.481 -1.342,-0.619c-0.619,-0.137 -1.295,-0.241 -2.029,-0.309c-0.734,-0.069 -1.421,-0.115 -2.063,-0.138c-0.642,-0.023 -1.124,-0.034 -1.445,-0.034c-0.367,0 -0.63,0.046 -0.791,0.137c-0.16,0.092 -0.241,0.321 -0.241,0.688c0,2.706 -0.011,4.895 -0.034,6.569c-0.023,1.674 -0.034,3.061 -0.034,4.161c0,1.101 -0.012,2.041 -0.035,2.821c-0.023,0.779 -0.034,1.627 -0.034,2.545c0,1.054 0.344,1.971 1.032,2.751c0.687,0.78 2.04,1.536 4.058,2.27l-17.059,0c1.193,-0.367 2.121,-0.757 2.786,-1.17c0.665,-0.412 1.169,-0.836 1.513,-1.272c0.344,-0.436 0.574,-0.871 0.688,-1.307c0.115,-0.436 0.172,-0.837 0.172,-1.204c0.138,-4.081 0.229,-7.726 0.275,-10.936c0.046,-3.21 0.069,-6.237 0.069,-9.08c0,-2.843 -0.011,-5.617 -0.034,-8.323c-0.023,-2.705 -0.035,-5.571 -0.035,-8.598Zm6.741,15.477c0,0.321 0.035,0.584 0.103,0.791c0.069,0.206 0.241,0.401 0.516,0.584c0.184,0.138 0.528,0.264 1.032,0.379c0.504,0.114 1.043,0.195 1.616,0.24c0.574,0.046 1.135,0.081 1.686,0.104c0.55,0.023 0.986,0.034 1.307,0.034c0.871,0 1.616,-0.057 2.235,-0.172c0.619,-0.115 1.296,-0.47 2.029,-1.066c1.513,-1.238 2.534,-2.832 3.061,-4.781c0.527,-1.949 0.791,-3.863 0.791,-5.743c0,-1.559 -0.206,-3.107 -0.619,-4.643c-0.413,-1.536 -1.055,-2.923 -1.926,-4.162c-0.871,-1.238 -1.995,-2.235 -3.37,-2.992c-1.376,-0.756 -3.05,-1.135 -5.022,-1.135c-0.229,0 -0.538,0.012 -0.928,0.035c-0.39,0.023 -0.768,0.08 -1.135,0.172c-0.367,0.091 -0.688,0.229 -0.963,0.412c-0.275,0.184 -0.413,0.459 -0.413,0.826l0,21.117Z" style="fill:#bdc8d9;fill-rule:nonzero;"/><path d="M638.934,620.927l-5.502,14.582c-0.138,0.367 -0.103,0.711 0.103,1.032c0.206,0.321 0.481,0.63 0.825,0.929c0.344,0.298 0.723,0.561 1.135,0.791c0.413,0.229 0.757,0.412 1.032,0.55l-13.138,0c0.826,-0.092 1.628,-0.39 2.408,-0.894c0.779,-0.505 1.49,-1.101 2.132,-1.789c0.642,-0.688 1.204,-1.433 1.685,-2.235c0.482,-0.803 0.86,-1.548 1.135,-2.236l17.265,-46.635l16.921,45.191c0.275,0.733 0.63,1.547 1.066,2.442c0.436,0.894 0.963,1.765 1.582,2.613c0.619,0.849 1.284,1.605 1.995,2.27c0.711,0.665 1.479,1.089 2.304,1.273l-15.82,0c0.367,-0.092 0.779,-0.252 1.238,-0.482c0.458,-0.229 0.848,-0.504 1.169,-0.825c0.321,-0.321 0.539,-0.688 0.654,-1.101c0.114,-0.412 0.034,-0.871 -0.241,-1.375l-5.228,-14.101l-14.72,0Zm0.963,-3.095l13.138,0l-6.534,-17.472l-6.604,17.472Z" style="fill:#bdc8d9;fill-opacity:0.917647;fill-rule:nonzero;"/><path d="M702.766,627.324l18.572,-42.027c0.046,0 0.115,0.114 0.206,0.344c0.092,0.229 0.218,0.802 0.379,1.719c0.16,0.917 0.389,2.327 0.688,4.23c0.298,1.903 0.676,4.517 1.134,7.842c0.459,3.324 1.032,7.497 1.72,12.519c0.688,5.021 1.513,11.131 2.476,18.331c0.23,1.788 0.654,3.244 1.273,4.367c0.619,1.124 1.295,1.995 2.029,2.614c0.734,0.619 1.433,1.032 2.098,1.238c0.665,0.207 1.181,0.31 1.548,0.31l-16.234,0c0.734,-0.505 1.319,-0.952 1.754,-1.341c0.436,-0.39 0.757,-0.757 0.963,-1.101c0.207,-0.344 0.31,-0.688 0.31,-1.032c0,-0.344 -0.023,-0.745 -0.069,-1.204l-4.127,-32.122c-2.339,5.274 -4.861,10.971 -7.566,17.093c-2.706,6.122 -5.801,12.737 -9.286,19.844l-16.439,-35.424c-0.826,6.879 -1.479,12.313 -1.961,16.302c-0.481,3.99 -0.848,7.028 -1.1,9.114c-0.253,2.087 -0.402,3.474 -0.447,4.162c-0.046,0.688 -0.069,1.169 -0.069,1.444c0,0.367 0.034,0.734 0.103,1.101c0.069,0.367 0.275,0.722 0.619,1.066c0.344,0.344 0.86,0.688 1.548,1.032c0.687,0.344 1.65,0.676 2.889,0.997l-14.858,0.069c1.926,-0.092 3.348,-0.768 4.265,-2.029c0.917,-1.261 1.49,-2.763 1.719,-4.506l6.466,-46.979l19.397,42.027Z" style="fill:#bdc8d9;fill-opacity:0.917647;fill-rule:nonzero;"/><path d="M764.397,639.98c-3.806,0 -7.257,-0.688 -10.352,-2.063c-3.095,-1.376 -5.732,-3.279 -7.91,-5.709c-2.178,-2.431 -3.852,-5.285 -5.022,-8.564c-1.169,-3.279 -1.754,-6.821 -1.754,-10.627c0,-3.898 0.608,-7.498 1.823,-10.799c1.215,-3.302 2.935,-6.157 5.159,-8.564c2.224,-2.407 4.918,-4.288 8.082,-5.64c3.164,-1.353 6.695,-2.029 10.593,-2.029c3.852,0 7.337,0.607 10.455,1.822c3.118,1.215 5.767,2.935 7.945,5.159c2.178,2.224 3.852,4.93 5.021,8.117c1.169,3.187 1.754,6.752 1.754,10.696c0,3.897 -0.596,7.554 -1.788,10.971c-1.193,3.416 -2.901,6.397 -5.125,8.942c-2.224,2.545 -4.929,4.562 -8.116,6.053c-3.187,1.49 -6.776,2.235 -10.765,2.235Zm2.683,-3.026c2.98,0 5.433,-0.711 7.359,-2.133c1.926,-1.421 3.463,-3.244 4.609,-5.468c1.146,-2.224 1.937,-4.666 2.373,-7.326c0.436,-2.659 0.654,-5.227 0.654,-7.703c0,-2.935 -0.356,-5.904 -1.067,-8.908c-0.71,-3.004 -1.834,-5.72 -3.37,-8.151c-1.536,-2.43 -3.497,-4.425 -5.881,-5.984c-2.385,-1.559 -5.228,-2.339 -8.529,-2.339c-3.119,0 -5.698,0.642 -7.739,1.926c-2.04,1.284 -3.668,2.969 -4.883,5.056c-1.215,2.086 -2.064,4.436 -2.545,7.05c-0.482,2.614 -0.723,5.251 -0.723,7.91c0,3.073 0.379,6.157 1.135,9.252c0.757,3.095 1.938,5.892 3.543,8.392c1.605,2.499 3.657,4.528 6.156,6.087c2.499,1.559 5.468,2.339 8.908,2.339Z" style="fill:#bdc8d9;fill-opacity:0.917647;fill-rule:nonzero;"/><path d="M800.234,636.816c-0.551,-0.871 -0.86,-2.041 -0.929,-3.508c-0.069,-1.467 -0.046,-2.854 0.069,-4.161c0.114,-1.307 0.275,-2.362 0.481,-3.164c0.207,-0.803 0.356,-1.021 0.447,-0.654c0.275,1.651 0.619,3.187 1.032,4.609c0.413,1.421 0.997,2.659 1.754,3.714c0.757,1.055 1.743,1.892 2.958,2.511c1.215,0.619 2.74,0.928 4.574,0.928c1.146,0 2.247,-0.195 3.302,-0.584c1.054,-0.39 1.994,-0.929 2.82,-1.617c0.825,-0.688 1.479,-1.536 1.96,-2.545c0.482,-1.009 0.722,-2.132 0.722,-3.37c0,-1.972 -0.458,-3.738 -1.375,-5.297c-0.917,-1.559 -2.052,-3.026 -3.405,-4.402c-1.353,-1.376 -2.82,-2.74 -4.402,-4.093c-1.582,-1.352 -3.05,-2.808 -4.403,-4.367c-1.352,-1.559 -2.487,-3.302 -3.404,-5.228c-0.917,-1.926 -1.376,-4.15 -1.376,-6.672c0,-2.614 0.459,-4.872 1.376,-6.775c0.917,-1.903 2.327,-3.371 4.23,-4.402c1.903,-1.032 4.31,-1.583 7.222,-1.651c2.912,-0.069 6.34,0.447 10.283,1.547c0.276,0.963 0.402,2.029 0.379,3.199c-0.023,1.169 -0.103,2.258 -0.241,3.267c-0.138,1.009 -0.287,1.834 -0.447,2.476c-0.161,0.642 -0.241,0.917 -0.241,0.826c-0.183,-1.101 -0.435,-2.167 -0.756,-3.199c-0.321,-1.032 -0.803,-1.949 -1.445,-2.751c-0.642,-0.803 -1.513,-1.445 -2.614,-1.926c-1.1,-0.482 -2.545,-0.722 -4.333,-0.722c-2.293,0 -4.196,0.607 -5.709,1.822c-1.513,1.216 -2.27,3.061 -2.27,5.538c0,1.65 0.47,3.141 1.41,4.471c0.94,1.329 2.109,2.625 3.508,3.886c1.399,1.261 2.912,2.556 4.54,3.886c1.628,1.33 3.141,2.797 4.54,4.402c1.398,1.605 2.567,3.417 3.508,5.434c0.94,2.018 1.41,4.357 1.41,7.016c0,4.999 -1.949,8.988 -5.847,11.969l0,-0.069c-2.018,1.467 -4.012,2.339 -5.984,2.614c-1.972,0.275 -3.818,0.252 -5.537,-0.069c-1.72,-0.321 -3.256,-0.791 -4.609,-1.41c-1.353,-0.619 -2.419,-1.112 -3.198,-1.479Z" style="fill:#bdc8d9;fill-opacity:0.917647;fill-rule:nonzero;"/></g></g></svg>