<svg xmlns="http://www.w3.org/2000/svg" width="258.751" height="195.899" viewBox="0 0 258.751 195.899"><g transform="translate(0.01)"><path d="M137.421,89.767l-10.886,2.35a8.313,8.313,0,0,1-9.9-6.433h0a8.313,8.313,0,0,1,6.433-9.9l10.886-2.35a8.313,8.313,0,0,1,9.9,6.433h0A8.313,8.313,0,0,1,137.421,89.767Z" transform="translate(27.609 17.365)" fill="#811730"/><g transform="translate(-0.01 29.167)"><path d="M92.537,24.6a44.167,44.167,0,0,1,52.576,33.9l1.361,6.062c-.247-10.886,11.5-20.659,16.948-12.866,4.454,6.185,6.433,15.092,3.711,18.8-1.608,3.216-5.443,4.948-10.144,6.062,8.783,7.423,13.979,15.835,15.216,25.237,0,0,5.814,26.845,8.165,37.731s-2.35,15.216-8.907,17.072c-19.422,8.041-23.257-12.618-23.257-12.618L52.579,164.633s5.072,20.412-15.958,21.154c-6.8.99-12.866-.99-15.216-11.876s-8.165-37.731-8.165-37.731c-2.722-9.031-1.485-18.8,3.464-29.2-4.825.99-9.031.99-11.752-1.237C.868,103.274-.987,94.367.5,86.944c1.732-9.4,16.453-5.319,20.783,4.7L19.92,85.583a44.167,44.167,0,0,1,33.9-52.576Z" transform="translate(0.01 -23.577)" fill="#811730"/><path d="M134.5,66.529l-1.113-5.319A39.061,39.061,0,0,0,86.877,31.272L52.61,38.695A39.061,39.061,0,0,0,22.672,85.209l1.113,5.319Z" transform="translate(5.175 -21.966)" fill="#bdc7d9"/><path d="M35.557,112.817l10.886-2.35a8.408,8.408,0,0,0,6.433-9.9h0a8.408,8.408,0,0,0-9.9-6.433l-11.01,2.35a8.408,8.408,0,0,0-6.433,9.9h0A8.378,8.378,0,0,0,35.557,112.817Z" transform="translate(6.022 -6.894)" fill="#bdc7d9"/></g><path d="M176.041,40.2a44.243,44.243,0,0,1,44.288,44.288v6.185c2.1-10.639,15.587-17.69,19.3-8.907,3.093,6.928,3.093,16.082-.247,19.175-2.227,2.845-6.309,3.711-11.258,3.711q10.577,13.732,9.649,27.834v38.6c0,11.134-5.567,14.35-12.371,14.845-20.783,3.711-20.041-17.319-20.041-17.319H107.506s.619,21.03-20.041,17.319c-6.8-.495-12.371-3.711-12.371-14.845v-38.6c-.742-9.4,2.6-18.68,9.649-27.834-4.948,0-9.031-.866-11.257-3.711-3.34-3.093-3.34-12.247-.247-19.175,3.711-8.783,17.2-1.608,19.3,8.907V84.488A44.243,44.243,0,0,1,136.825,40.2Z" transform="translate(16.824 9.531)" fill="#bdc7d9"/><path d="M185.846,117.577H174.712a8.4,8.4,0,0,1-8.412-8.288h0A8.316,8.316,0,0,1,174.712,101h11.134a8.289,8.289,0,0,1,8.288,8.288h0A8.211,8.211,0,0,1,185.846,117.577Z" transform="translate(39.43 23.946)" fill="#811730"/><path d="M99.188,117.577h11.134a8.289,8.289,0,0,0,8.288-8.288h0A8.289,8.289,0,0,0,110.322,101H99.188a8.289,8.289,0,0,0-8.288,8.288h0A8.289,8.289,0,0,0,99.188,117.577Z" transform="translate(21.554 23.946)" fill="#811730"/><g transform="translate(135.587)"><path d="M113.435,30.432,109.6,0l8.66,29.443Z" transform="translate(-109.6)" fill="#070909"/><g transform="translate(25.237 22.762)"><path d="M130,32.255,157.463,18.4,132.6,36.461Z" transform="translate(-130 -18.4)" fill="#070909"/></g><g transform="translate(14.474 5.196)"><path d="M121.3,31.292,135.774,4.2l-9.9,29.072Z" transform="translate(-121.3 -4.2)" fill="#070909"/></g></g><path d="M207.294,91.235V85.792A39.017,39.017,0,0,0,168.2,46.7h-35.01A39.1,39.1,0,0,0,94.1,85.792v5.443Z" transform="translate(22.312 11.072)" fill="#811730"/></g></svg>