<svg id="Group_1622" data-name="Group 1622" xmlns="http://www.w3.org/2000/svg" viewBox="0 0 452.4 356.7">
  <defs>
    <style>
      .cls-1 {
        fill: #811931;
      }

      .cls-1, .cls-2 {
        fill-rule: evenodd;
      }

      .cls-2 {
        fill: #bdc7d8;
      }
    </style>
  </defs>
  <path id="Path_630" data-name="Path 630" class="cls-1" d="M165.7,184.6l-.1,7.6c-16.6,4.1-37.9,5-58.6,3.3,19.2-.3,39.1-4.7,52.5-13.5l6.2-4.4v7Z"/>
  <path id="Path_631" data-name="Path 631" class="cls-2" d="M165.4,127.5c-.2-18.6-.2-38.3-.2-59.1,0-12.3-.2-22.2-.5-29.6-.3-6.2-1.8-15.3-3.6-19.4,5.1,1.5,12.7,2.3,17.3,4.2,9.3,3.8,25.6,9.7,30.8,22.6,2.8,7,1.7,17.3,2.3,19.9V174.8a16.456,16.456,0,0,0,.7,5.4,8.611,8.611,0,0,0,3.5,4,21.672,21.672,0,0,0,7.1,2.6,92.227,92.227,0,0,0,11.1,1.7c3.9.3,7.8.6,11.6.7,3.8.2,6.8.2,9,.2a85.191,85.191,0,0,0,15.4-1.2c4.3-.8,8.9-3.2,14-7.3A63.009,63.009,0,0,0,305,148a152.016,152.016,0,0,0,5.4-39.5,119.6,119.6,0,0,0-4.3-31.9A86.765,86.765,0,0,0,293,48a67.857,67.857,0,0,0-23.2-20.6c-9.5-5.2-21-7.8-34.6-7.8-1.6,0-3.7.1-6.4.2a81.278,81.278,0,0,0-10.3,1s-59.8-14.7-73-14.7L128.8.3l-.5-.2H249.5a278.677,278.677,0,0,1,41.4,3.1A74.805,74.805,0,0,1,328.5,20a71.22,71.22,0,0,1,20.8,27.7,94.176,94.176,0,0,1,7.3,33.1,115.745,115.745,0,0,1-4,34.8,155.772,155.772,0,0,1-12.8,32.6,124.342,124.342,0,0,1-18.7,26.5c-7.1,7.6-14.6,13.1-22.5,16.6,6.6,1.9,13.5,7.3,20.6,16.1A283.514,283.514,0,0,1,341,239.1q11.1,18.45,23.4,39a379.323,379.323,0,0,0,26,38.1,155.582,155.582,0,0,0,29.1,28.9c10.3,7.6,21.2,11.4,32.9,11.4-14.2,0-26.2-.1-36-.2-9.8-.2-18.1-.5-24.8-.9a82.615,82.615,0,0,1-16.8-2.6,56.132,56.132,0,0,1-12.3-5.2q-10.35-6.15-20.1-17.7a303.093,303.093,0,0,1-18.7-24.8c-6-8.8-11.7-17.7-17-26.7-5.4-9-10.3-17.1-14.7-24.4-1.6-2.5-3.5-5.8-5.7-9.7s-4.6-7.9-7.1-11.8-5-7.6-7.3-11.1a56.808,56.808,0,0,0-6.4-8c-1.9-1.9-5-3.3-9.2-4.3a108.913,108.913,0,0,0-14-2.1c-5-.5-9.8-.8-14.2-.9-4.4-.2-7.7-.2-9.9-.2a11.942,11.942,0,0,0-5.4.9c-1.1.6-1.7,2.2-1.7,4.7,0,18.6-.1,33.7-.2,45.2-.2,11.5-.2,21.1-.2,28.6,0,7.6-.1,14-.2,19.4-.2,5.4-.2,11.2-.2,17.5a27.581,27.581,0,0,0,7.1,18.9q7.05,7.95,27.9,15.6H127.8c8.3-2.6,14.6-5.2,19.2-8a39.324,39.324,0,0,0,10.4-8.8,24.424,24.424,0,0,0,4.7-9,32.589,32.589,0,0,0,1.2-8.3c.9-28.1,1.6-53.1,1.9-75.2l.5-62.4v-7l-.3-50.5Z"/>
  <path id="Path_632" data-name="Path 632" class="cls-1" d="M214.3,109.4c5.6-48.8-22.5-72.4-37.9-81.1a94.451,94.451,0,0,0-71.5-8.9,25.5,25.5,0,0,0-8.3,3.8,7.716,7.716,0,0,0-3.3,6.6q0,72.9-.7,144.6-.75,71.7,1.7,148.4a20.774,20.774,0,0,0,3.3,10.7,58.819,58.819,0,0,0,8,10.2,50.473,50.473,0,0,0,22.3,12.7H8a75.944,75.944,0,0,0,10.9-4.3A55.812,55.812,0,0,0,30.3,345a41.449,41.449,0,0,0,8.8-9.9,23.237,23.237,0,0,0,3.5-12.8V310.9c0-4.1.1-9.9.2-17.5.2-7.6.3-17.5.5-29.8s.3-28.4.5-48.3.2-44.3.2-73.1V38.3a55.192,55.192,0,0,0-1.9-10.9,22.828,22.828,0,0,0-5.7-9.9c-2.8-3.2-7.2-6.2-13-9A149.6,149.6,0,0,0,0,0L128.8.2h19.5a160.668,160.668,0,0,1,37.9,4.3,89.762,89.762,0,0,1,31.9,14.2l2.7,2.2a69.223,69.223,0,0,1,19.5,23.6c5.5,10.6,8.3,23.4,8.3,38.6a124.417,124.417,0,0,1-8.8,47.3,98.335,98.335,0,0,1-26.3,37.4l-2.1,1.7V120.7a50.837,50.837,0,0,0,1.5-5.2,31.749,31.749,0,0,0,1.4-6.1Z"/>
</svg>
