<svg xmlns="http://www.w3.org/2000/svg" width="28" height="20" viewBox="0 0 28 20">
  <g id="close-envelope" transform="translate(0 -2)">
    <g id="Group_35" data-name="Group 35" transform="translate(0 2)">
      <path id="Path_15" data-name="Path 15" d="M13.684,10.516,10.22,7.484l-9.9,8.49a2.027,2.027,0,0,0,1.382.542H25.67a2.012,2.012,0,0,0,1.376-.542l-9.9-8.49Z" transform="translate(0.316 3.484)" fill="#fff"/>
      <path id="Path_16" data-name="Path 16" d="M27.05,2.542A2.014,2.014,0,0,0,25.668,2H1.7a2.006,2.006,0,0,0-1.378.546L13.682,14Z" transform="translate(0.318 -2)" fill="#fff"/>
      <path id="Path_17" data-name="Path 17" d="M0,2.878V19.494L9.666,11.28Z" transform="translate(0 -1.122)" fill="#fff"/>
      <path id="Path_18" data-name="Path 18" d="M9.167,11.283,18.833,19.5V2.875Z" transform="translate(9.167 -1.125)" fill="#fff"/>
    </g>
  </g>
</svg>
