<svg xmlns="http://www.w3.org/2000/svg" width="28.399" height="28.4" viewBox="0 0 28.399 28.4">
  <g id="telephone-handle-silhouette" transform="translate(-0.01)">
    <path id="Path_14" data-name="Path 14" d="M28.348,22.005q-.12-.363-1.533-1.069-.383-.222-1.089-.605t-1.281-.706Q23.87,19.3,23.367,19q-.081-.061-.5-.353a5.669,5.669,0,0,0-.716-.434,1.321,1.321,0,0,0-.575-.141,1.674,1.674,0,0,0-1.008.575A9.821,9.821,0,0,0,19.454,19.9a12.161,12.161,0,0,1-1.069,1.25,1.537,1.537,0,0,1-.928.575,1.372,1.372,0,0,1-.454-.1c-.181-.067-.319-.125-.414-.171s-.255-.141-.484-.283-.357-.219-.383-.232a21.2,21.2,0,0,1-4.74-3.51,21.185,21.185,0,0,1-3.51-4.74q-.02-.04-.232-.383t-.283-.484a4.372,4.372,0,0,1-.171-.413,1.365,1.365,0,0,1-.1-.454,1.537,1.537,0,0,1,.575-.928,12.148,12.148,0,0,1,1.25-1.069A9.817,9.817,0,0,0,9.762,7.846a1.674,1.674,0,0,0,.575-1.008,1.317,1.317,0,0,0-.141-.575,5.607,5.607,0,0,0-.434-.716q-.293-.424-.353-.5-.3-.5-.625-1.079T8.078,2.682q-.383-.706-.605-1.089Q6.767.182,6.4.061A1.13,1.13,0,0,0,5.981,0,6.645,6.645,0,0,0,4.558.2,7.988,7.988,0,0,0,3.177.625a5.407,5.407,0,0,0-2.138,2.46A7.82,7.82,0,0,0,.01,6.837,7.79,7.79,0,0,0,.081,7.9a8.7,8.7,0,0,0,.252,1.16q.181.645.292.958t.413,1.119q.3.807.363.988a18.27,18.27,0,0,0,1.674,3.53,29.907,29.907,0,0,0,4.346,5.335,29.921,29.921,0,0,0,5.335,4.347,18.3,18.3,0,0,0,3.53,1.674q.182.06.988.363t1.119.413q.313.111.958.293a8.779,8.779,0,0,0,1.16.253,7.482,7.482,0,0,0,4.811-.958,5.4,5.4,0,0,0,2.46-2.138,7.944,7.944,0,0,0,.424-1.382,6.631,6.631,0,0,0,.2-1.422A1.125,1.125,0,0,0,28.348,22.005Z" transform="translate(0)" fill="#fff"/>
  </g>
</svg>
