<svg xmlns="http://www.w3.org/2000/svg" width="26.784" height="26.782" viewBox="0 0 26.784 26.782">
  <g id="Group_11" data-name="Group 11" transform="translate(-714.643 -2892.75)">
    <g id="whatsapp" transform="translate(715 2893)">
      <path id="Path_11" data-name="Path 11" d="M0,26.177l1.805-6.544A13.019,13.019,0,0,1,13.043,0,13.147,13.147,0,0,1,26.177,13,13.3,13.3,0,0,1,13.043,26.177,13.139,13.139,0,0,1,6.68,24.371Z" fill="#ededed" stroke="#707070" stroke-width="0.5"/>
      <path id="Path_12" data-name="Path 12" d="M47.025,62.009l.406.226a10.716,10.716,0,0,0,5.642,1.67A10.941,10.941,0,0,0,63.9,52.983a10.832,10.832,0,0,0-21.664,0,10.933,10.933,0,0,0,1.67,5.822l.271.406L43.144,63Z" transform="translate(-39.985 -39.985)" fill="#55cd6c" stroke="#707070" stroke-width="0.5"/>
      <path id="Path_13" data-name="Path 13" d="M127.073,129.3l-.857-.045a1.025,1.025,0,0,0-.722.271,3.739,3.739,0,0,0-1.264,1.941,5.87,5.87,0,0,0,1.354,4.6,13.677,13.677,0,0,0,7.4,5.371,3.667,3.667,0,0,0,3.069-.361,2.663,2.663,0,0,0,1.173-1.715l.135-.632a.454.454,0,0,0-.226-.5l-2.843-1.309a.431.431,0,0,0-.542.135l-1.128,1.444a.351.351,0,0,1-.361.09,8.771,8.771,0,0,1-4.739-4.062.341.341,0,0,1,.045-.361l1.083-1.219a.556.556,0,0,0,.09-.451l-1.309-2.934a.393.393,0,0,0-.361-.271" transform="translate(-117.505 -122.353)" fill="#fefefe" stroke="#707070" stroke-width="0.5"/>
    </g>
  </g>
</svg>
